PathFileType	4	(X/Y/Z)	C:/Users/opensim2020/Desktop/walking_exp_matlab/subject03_walking07_straight_04.trc	
DataRate	CameraRate	NumFrames	NumMarkers	Units	OrigDataRate	OrigDataStartFrame	OrigNumFrames	
100.00	100.00	8	46	mm	100.00	3091	265	
Frame#	Time	LFHD			RFHD			LBHD			RBHD			C7			T10			CLAV			STRN			RBAK			LSHO			LUPA			LELB			LFRM			LWRA			LWRB			LFIN			RSHO			RUPA			RELB			RFRM			RWRA			RWRB			RFIN			LASI			RASI			LPSI			RPSI			LTHI			LKNE			LTIB			LANK			LHEE			LTOE			RTHI			RKNE			RTIB			RANK			RHEE			RTOE			*39			*40			*41			*42			*43			*44			*45			
		X1	Y1	Z1	X2	Y2	Z2	X3	Y3	Z3	X4	Y4	Z4	X5	Y5	Z5	X6	Y6	Z6	X7	Y7	Z7	X8	Y8	Z8	X9	Y9	Z9	X10	Y10	Z10	X11	Y11	Z11	X12	Y12	Z12	X13	Y13	Z13	X14	Y14	Z14	X15	Y15	Z15	X16	Y16	Z16	X17	Y17	Z17	X18	Y18	Z18	X19	Y19	Z19	X20	Y20	Z20	X21	Y21	Z21	X22	Y22	Z22	X23	Y23	Z23	X24	Y24	Z24	X25	Y25	Z25	X26	Y26	Z26	X27	Y27	Z27	X28	Y28	Z28	X29	Y29	Z29	X30	Y30	Z30	X31	Y31	Z31	X32	Y32	Z32	X33	Y33	Z33	X34	Y34	Z34	X35	Y35	Z35	X36	Y36	Z36	X37	Y37	Z37	X38	Y38	Z38	X39	Y39	Z39	X40	Y40	Z40	X41	Y41	Z41	X42	Y42	Z42	X43	Y43	Z43	X44	Y44	Z44	X45	Y45	Z45	X46	Y46	Z46	

133	1.320	-934.32489	-224.32040	1601.68481	-1066.52637	-215.47754	1611.49841	-930.48065	-91.22734	1578.05176	-1061.13086	-87.15223	1586.81641	-995.16772	-40.13441	1416.17224	-1003.27722	-3.85006	1099.84570	-999.25464	-159.97403	1337.79456	-999.48706	-202.88405	1174.27893	-1100.12158	14.40047	1241.99768	-841.45923	-119.16081	1371.37097	-776.67853	-94.11814	1171.37000	-769.38782	-84.06544	1047.97083	-770.89417	-87.35625	917.42480	-802.03790	-82.78297	797.59320	-749.49664	-63.23943	806.88495	-761.73560	-56.00342	721.32288	-1157.23645	-116.00085	1367.26025	-1231.99756	-150.18405	1149.88379	-1242.97888	-188.42506	1044.23596	-1236.48828	-246.42561	920.87195	-1192.82434	-303.12012	844.13519	-1237.03516	-278.74146	825.79187	-1221.30444	-325.74368	770.29028	-893.67529	-180.89262	943.27710	-1129.44519	-167.26521	933.86414	-934.28461	-16.46576	963.07690	-1083.69958	-10.37938	965.38239	-850.60010	-159.83014	641.24847	-892.41028	-196.60202	467.82504	-890.29590	-175.77211	273.18997	-931.53809	-194.29034	64.43610	-967.20502	-156.30492	29.77333	-954.58197	-348.23871	31.13589	-1172.51489	-92.07204	634.93170	-1150.36743	-91.19208	453.98706	-1142.99768	54.39498	322.95258	-1089.39685	200.97330	167.66943	-1033.38025	245.37399	181.57649	-1061.52136	147.04640	33.65908																					 
134	1.330	-933.73956	-233.62204	1602.33643	-1065.88098	-224.69762	1612.34619	-929.76648	-100.57864	1578.68311	-1060.44958	-96.32857	1587.60303	-994.29486	-49.47288	1416.69812	-1002.36890	-13.86735	1100.42712	-998.84796	-169.64919	1338.72595	-999.34375	-212.96382	1175.43726	-1099.53430	4.55676	1242.63879	-841.23163	-129.36092	1372.53662	-775.93665	-106.18833	1172.59082	-768.49622	-97.48523	1049.16589	-770.18011	-102.40096	918.69067	-801.36499	-98.80132	798.69049	-748.59747	-79.89826	807.79144	-760.90918	-73.11269	722.12030	-1156.44910	-125.05134	1368.48462	-1231.20593	-158.12959	1150.91809	-1242.10461	-195.18889	1044.83740	-1236.05945	-251.87405	920.93707	-1192.44128	-307.77243	843.16797	-1236.89783	-283.09018	825.36780	-1220.95703	-329.03397	768.48810	-892.83868	-190.57074	944.06165	-1128.55396	-177.06230	934.72192	-933.69818	-26.48560	964.16290	-1083.05493	-20.15515	966.13312	-850.02930	-166.25937	641.68378	-891.75513	-201.40083	467.66193	-889.94250	-178.74863	273.46521	-931.46191	-194.00084	64.51026	-967.20935	-156.24475	29.80952	-954.74634	-348.41592	30.94309	-1172.63501	-106.69406	634.25885	-1150.89746	-110.33222	453.44736	-1143.94495	35.65344	324.76569	-1091.07581	186.27303	173.25369	-1035.73975	230.72075	190.77794	-1061.72412	139.85698	37.95752	-975.82495	-158.91858	1679.76843																		 
135	1.340	-933.20386	-242.85942	1602.98718	-1065.32593	-233.63405	1613.20374	-929.12628	-109.84193	1579.03943	-1059.75452	-105.38434	1588.16858	-993.69141	-58.63902	1417.18335	-1001.49347	-23.79082	1100.80994	-998.58948	-179.13013	1339.45764	-999.23328	-222.85574	1176.29504	-1098.84802	-4.99563	1243.03491	-840.96454	-139.33795	1373.37842	-775.12598	-118.12984	1173.49500	-767.42755	-110.94489	1050.16980	-769.44312	-117.58310	919.68134	-800.61200	-115.01496	799.45612	-747.76788	-96.89124	808.40320	-760.13440	-90.68926	722.56879	-1155.94934	-134.04221	1369.39294	-1230.61902	-165.97459	1151.55469	-1241.32776	-201.95688	1045.08630	-1235.73340	-257.31964	920.48401	-1192.37378	-312.37946	841.83588	-1236.96106	-287.53479	824.56995	-1220.71289	-332.19797	766.45276	-892.11560	-200.12360	944.42511	-1127.98218	-186.65425	935.19135	-932.97992	-36.11115	964.92889	-1082.33984	-29.63014	966.44604	-849.30634	-172.78851	641.87897	-891.32672	-206.75114	467.44290	-889.49353	-181.85788	273.67966	-931.61230	-194.40102	64.57301	-967.11896	-156.18335	29.79597	-954.91974	-348.46558	30.79112	-1172.57654	-120.99857	633.59955	-1151.05237	-129.40437	453.02417	-1145.52441	16.39474	325.53708	-1092.03748	171.61241	179.39658	-1036.77124	216.05661	198.49590	-1064.19836	128.78847	43.22904	-976.55811	-168.32668	1677.46460																		 
136	1.350	-932.88147	-252.07605	1603.58350	-1064.92188	-242.59567	1614.01245	-928.60144	-118.92998	1579.41296	-1059.22632	-114.37894	1588.64392	-992.61310	-67.82830	1417.60449	-1000.62799	-33.56849	1101.10291	-998.38812	-188.44362	1340.13635	-999.17297	-232.42398	1176.96985	-1098.10364	-14.28518	1243.25952	-840.70618	-149.26303	1373.93628	-774.21100	-130.24553	1174.16211	-766.54443	-124.19989	1050.65356	-768.60590	-132.93338	920.34125	-799.96967	-131.86826	800.12103	-746.85577	-114.24352	808.76257	-759.37012	-108.76413	722.77142	-1155.61499	-142.87398	1369.97559	-1230.24438	-173.56552	1151.80249	-1241.07898	-208.56134	1045.01404	-1235.59692	-262.70007	919.73248	-1192.47754	-316.90384	840.20624	-1237.13843	-291.81635	823.46143	-1220.66199	-335.27188	764.17932	-891.33130	-209.72568	944.54706	-1127.24817	-195.94193	935.45062	-932.22986	-45.63652	965.30298	-1081.63977	-38.87920	966.39850	-848.14752	-179.54855	642.11279	-890.92126	-211.93513	467.24988	-889.07428	-184.88818	273.89359	-931.50684	-194.55901	64.62581	-966.99109	-156.13911	29.80928	-955.02252	-348.52597	30.66601	-1172.24390	-135.06029	633.15430	-1151.09021	-148.56308	452.84341	-1146.68103	-2.83919	326.57648	-1092.34082	156.84485	186.06453	-1036.26880	200.86267	204.34204	-1068.04773	114.45110	48.87030	-978.04913	-176.86743	1678.50415																		 
137	1.360	-932.56934	-261.08252	1604.22778	-1064.58008	-251.38806	1614.78125	-928.14380	-128.12332	1579.70837	-1058.70630	-123.25557	1589.02295	-992.27423	-76.87379	1417.81665	-999.85846	-43.16983	1101.32361	-998.24390	-197.63931	1340.75000	-999.19592	-241.73235	1177.44580	-1097.21338	-23.22884	1243.35510	-840.44006	-159.08972	1374.23840	-773.44952	-141.99246	1174.45776	-765.36322	-137.68076	1050.79431	-767.74500	-148.45340	920.71979	-799.27521	-149.16202	800.58667	-746.08533	-131.82088	808.83014	-758.65155	-127.54282	722.86676	-1155.43018	-151.57205	1370.28333	-1229.99316	-181.03812	1151.67432	-1240.94226	-215.25342	1044.54822	-1235.64783	-267.95563	918.62018	-1192.72852	-321.34464	838.25708	-1237.49634	-295.97525	822.03992	-1220.87659	-338.25500	761.73096	-890.78937	-219.20909	944.54205	-1127.13855	-205.19023	935.53638	-931.43665	-54.92419	965.51025	-1080.84778	-47.99967	966.03955	-846.62567	-186.54604	642.52039	-890.37634	-216.82835	467.04050	-888.64941	-187.72903	274.09457	-931.45258	-194.63820	64.66742	-966.88361	-156.03024	29.84207	-955.07770	-348.60629	30.54200	-1171.91333	-148.75093	633.19055	-1151.15466	-167.93649	453.13278	-1146.36145	-21.74003	328.89935	-1092.39661	140.78325	191.94974	-1035.47363	184.57204	208.84818	-1072.02576	97.94856	54.10251	-975.91510	-185.91086	1678.39514																		 
138	1.370	-932.33575	-270.08115	1604.82666	-1064.32214	-260.21759	1615.46204	-927.76764	-137.11757	1579.97095	-1058.34851	-132.12459	1589.44507	-991.87091	-85.94481	1418.37390	-999.20807	-52.55299	1101.55115	-998.20190	-206.72644	1341.22424	-999.16168	-250.98424	1177.88708	-1096.31592	-31.99074	1243.42334	-840.20898	-168.86908	1374.34717	-772.62714	-154.02020	1174.50159	-764.24677	-151.06343	1050.83362	-766.95386	-164.16003	920.96100	-798.71399	-166.94875	801.18506	-745.31525	-149.58232	808.80212	-757.97339	-146.83650	722.85516	-1155.37939	-160.16418	1370.30969	-1229.90759	-188.46579	1151.24243	-1240.85193	-221.98877	1043.72534	-1235.82788	-273.13257	917.22577	-1193.18762	-325.68805	836.03827	-1237.97009	-299.99777	820.29132	-1221.28809	-341.17703	759.15283	-890.22064	-228.74922	944.53491	-1126.86951	-214.21890	935.61810	-930.63831	-64.17928	965.60901	-1080.05981	-57.00466	965.54565	-845.63562	-193.11264	642.79865	-889.56769	-221.67442	466.98947	-888.30627	-190.39606	274.22900	-931.41046	-194.77466	64.78457	-966.84241	-156.00104	29.90903	-955.09344	-348.69266	30.43430	-1171.59363	-162.34100	633.69275	-1151.30042	-187.20953	454.18069	-1145.39893	-40.41486	331.82394	-1092.61121	123.38601	196.51923	-1034.83044	167.22301	212.17882	-1076.73608	79.52483	58.83979	-975.44684	-194.69308	1678.72888																		 
139	1.380	-932.15344	-279.04959	1605.34131	-1064.13184	-268.93793	1616.13672	-927.56396	-146.08446	1580.29712	-1057.99695	-140.90053	1589.80688	-991.53467	-95.04195	1418.80627	-998.69366	-61.78970	1101.78528	-998.21344	-215.76477	1341.61316	-999.11060	-260.06720	1178.19897	-1095.30371	-40.55628	1243.49377	-840.03638	-178.48401	1374.33838	-771.91241	-165.96957	1174.44861	-763.06873	-164.80640	1050.72046	-766.16919	-179.99995	921.12390	-798.17389	-184.03383	801.34448	-744.55524	-167.70605	808.75482	-757.35046	-166.61897	722.90656	-1155.48401	-168.68947	1370.23511	-1229.82935	-195.75574	1150.70325	-1240.94519	-228.66736	1042.83960	-1236.14636	-278.31555	915.63507	-1193.83472	-330.19928	833.88104	-1238.56726	-303.83945	818.39417	-1221.97131	-344.01227	756.56775	-889.77362	-237.94591	944.68964	-1126.51331	-223.25858	935.88525	-930.03040	-73.26317	965.79596	-1079.35193	-66.03176	965.14288	-844.80994	-200.24860	643.11285	-888.81720	-226.26189	466.82938	-888.06793	-193.24673	274.43185	-931.18652	-194.76695	65.12049	-967.03552	-156.05016	29.94540	-955.08264	-348.79111	30.32407	-1171.21912	-175.93938	634.54095	-1151.38599	-206.19189	455.79816	-1144.87805	-59.14798	334.67831	-1092.88159	105.25477	199.90182	-1034.30652	149.12029	214.37238	-1080.72253	60.18610	62.72049	-974.48792	-203.00797	1679.71582																		 
140	1.390	-932.06879	-287.86447	1605.79980	-1063.98621	-277.64444	1616.76782	-927.26544	-154.98288	1580.45654	-1057.81702	-149.72995	1590.19849	-991.18842	-104.12558	1419.28589	-998.12311	-70.85718	1102.05920	-998.28644	-224.76060	1341.95447	-999.06097	-269.00452	1178.47705	-1094.30176	-48.98519	1243.52747	-839.93463	-188.06592	1374.28357	-771.35132	-177.88631	1174.38074	-762.04236	-178.53867	1050.60632	-765.54755	-195.90167	921.34930	-797.38702	-202.88512	802.21436	-743.68762	-186.08846	808.93060	-756.72705	-186.88861	723.09668	-1155.59607	-177.13632	1369.91577	-1229.80676	-203.01051	1150.06152	-1241.14819	-235.27197	1041.87854	-1236.54126	-283.36694	914.00934	-1194.56030	-333.97491	831.28937	-1239.27527	-307.51428	816.38782	-1222.93787	-346.81900	753.97369	-889.18390	-246.95804	944.98425	-1126.30957	-232.43764	936.29230	-929.64368	-82.12124	966.14880	-1078.74207	-75.07385	964.94354	-845.40295	-206.53839	643.35718	-888.25159	-231.29128	466.90582	-888.01202	-196.21992	274.61755	-931.48553	-194.97066	65.25028	-967.37097	-156.11658	30.16773	-955.09290	-348.94122	30.25977	-1170.73926	-189.91286	635.49628	-1151.44666	-224.90390	457.80731	-1144.77002	-78.20438	337.11176	-1093.17993	86.32106	202.36385	-1034.09497	130.43640	215.40190	-1084.02148	39.76096	65.81830	-974.94934	-212.07230	1679.81104																		 
